PathFileType	4	(X/Y/Z)	P:\Projects\LMB_grand_challenge_database\project_only\opensim\experimental_data\SixthCompetition/DM_ngait_og6_new.trc
DataRate	CameraRate	NumFrames	NumMarkers	Units	OrigDataRate	OrigDataStartFrame	OrigNumFrames
120	120	4	68	mm	120	171	342
Frame#	Time	Sternum			Neck			R_Shoulder			L_Shoulder			Xiphoid			Thoracic			R_Asis			L_Asis			R_Psis			L_Psis			Lumbar			R_Elbow			R_ElbowMedial			R_ShoulderAnterior			R_ShoulderPosterior			R_Wrist			R_Radius			R_Ulna			L_Elbow			L_ElbowMedial			L_ShoulderAnterior			L_ShoulderPosterior			L_Wrist			L_Ulna			L_Radius			L_Thigh_Superior			L_Thigh_Inferior			L_Thigh_Lateral			L_Knee_Lateral			L_Knee_Medial			L_Patella			L_Shank_Superior			L_Shank_Inferior			L_Shank_Lateral			L_Ankle_Lateral			L_Ankle_Medial			R_Thigh_Superior			R_Thigh_Inferior			R_Thigh_Lateral			R_Knee_Lateral			R_Knee_Medial			R_Patella			R_Shank_Superior			R_Shank_Inferior			R_Shank_Lateral			R_Ankle_Lateral			RankleMedial			R_Heel			R_Toe			R_Midfoot_Medial			R_Midfoot_Lateral			R_Hindfoot			R_Midfoot_Superior			R_ToeMedial			R_ToeLateral			L_Heel			L_Toe			L_Midfoot_Medial			L_Midfoot_Lateral			L_Hindfoot			L_Midfoot_Superior			L_ToeMedial			L_ToeLateral			Oglobal			Sacral			Xglobal			Yglobal			Zglobal			
		X1	Y1	Z1	X2	Y2	Z2	X3	Y3	Z3	X4	Y4	Z4	X5	Y5	Z5	X6	Y6	Z6	X7	Y7	Z7	X8	Y8	Z8	X9	Y9	Z9	X10	Y10	Z10	X11	Y11	Z11	X12	Y12	Z12	X13	Y13	Z13	X14	Y14	Z14	X15	Y15	Z15	X16	Y16	Z16	X17	Y17	Z17	X18	Y18	Z18	X19	Y19	Z19	X20	Y20	Z20	X21	Y21	Z21	X22	Y22	Z22	X23	Y23	Z23	X24	Y24	Z24	X25	Y25	Z25	X26	Y26	Z26	X27	Y27	Z27	X28	Y28	Z28	X29	Y29	Z29	X30	Y30	Z30	X31	Y31	Z31	X32	Y32	Z32	X33	Y33	Z33	X34	Y34	Z34	X35	Y35	Z35	X36	Y36	Z36	X37	Y37	Z37	X38	Y38	Z38	X39	Y39	Z39	X40	Y40	Z40	X41	Y41	Z41	X42	Y42	Z42	X43	Y43	Z43	X44	Y44	Z44	X45	Y45	Z45	X46	Y46	Z46	X47	Y47	Z47	X48	Y48	Z48	X49	Y49	Z49	X50	Y50	Z50	X51	Y51	Z51	X52	Y52	Z52	X53	Y53	Z53	X54	Y54	Z54	X55	Y55	Z55	X56	Y56	Z56	X57	Y57	Z57	X58	Y58	Z58	X59	Y59	Z59	X60	Y60	Z60	X61	Y61	Z61	X62	Y62	Z62	X63	Y63	Z63	X64	Y64	Z64	X65	Y65	Z65	X66	Y66	Z66	X67	Y67	Z67	X68	Y68	Z68	

172	3.833333	253.081	1458.88	141.523	407.821	1366.64	137.605	344.641	1409.8	311.485	311.331	1406.81	-32.0375	419.217	1201.79	146.962	152.866	1272.01	151.391	330.566	974.7670000000001	291.315	342.6	978.552	15.1025	133.865	1023.41	175.938	134.655	1020.39	96.97069999999999	138.27	1071.23	139.998	262.807	1115.21	434.87	-0	0	0	-0	0	0	-0	0	0	355.483	849.8680000000001	429.676	356.018	861.057	385.515	309.098	851.178	439.903	271.615	1072.14	-124.812	-0	0	0	-0	0	0	-0	0	0	326.252	807.4450000000001	-123.314	283.586	821.288	-141.358	321.404	823.191	-76.83839999999999	292.707	807.097	-15.943	364.529	597.005	41.0264	396.518	691.474	50.8759	-0	0	0	-0	0	0	417.915	514.446	104.125	344.321	442.428	39.4011	291.035	177.061	48.7415	350.935	299.667	115.672	-0	0	0	-0	0	0	256.878	792.25	318.955	281.899	576.212	292.809	340.618	707.372	312.684	-0	0	0	-0	0	0	358.303	468.355	245	172.266	458.797	297.892	25.523	315.545	278.285	171.249	345.447	227.863	-0	0	0	-0	0	0	-102.992	289.85	202.519	50.9981	43.0946	270.915	4.63556	86.81999999999999	199.157	-30.5685	107.371	309.115	-90.0583	194.644	272.101	30.378	191.285	249.883	30.9421	58.193	219.468	6.23977	73.1477	306.273	206.775	61.3823	111.204	505.007	55.6885	91.7876	428.844	35.0111	145.225	409.391	33.4246	32.419	302.689	27.6693	48.5069	368.095	119.115	94.65600000000001	469.839	38.0216	137.345	464.931	37.4857	41.7412	-0	0	0	134.26	1021.9	136.455	-200	0	0	-0	0	200	-0	200	0	
173	3.841667	261.011	1460.07	140.936	415.492	1367.74	137.592	351.728	1410.85	311.457	319.688	1407.87	-32.2008	427.048	1202.87	146.846	160.505	1273.24	150.472	338.549	975.962	290.088	350.353	979.838	14.007	141.677	1024.44	174.936	142.433	1021.46	96.0485	146.034	1072.28	139.023	268.325	1116.32	434.505	-0	0	0	-0	0	0	-0	0	0	359.486	850.628	429.314	359.722	861.5549999999999	385.194	313.247	852.318	440.177	285.556	1072.57	-125.221	-0	0	0	-0	0	0	-0	0	0	346.473	809.417	-122.086	303.789	822.04	-140.669	341.031	825.13	-75.9385	298.962	807.5599999999999	-16.6942	368.535	597.088	40.4014	401.356	691.481	50.023	-0	0	0	-0	0	0	420.533	513.888	103.283	345.966	442.165	38.9644	291.687	177.154	48.6724	352.202	299.609	115.297	-0	0	0	-0	0	0	266.426	793.8440000000001	319.027	295.599	578.502	293.492	352.46	710.784	312.837	-0	0	0	-0	0	0	375.14	471.545	246.235	188.571	459.671	298.149	43.8014	314.538	278.215	188.742	346.227	227.863	-0	0	0	-0	0	0	-84.37909999999999	286.652	201.796	73.7191	42.8827	271.955	26.8801	85.5712	199.792	-9.109690000000001	105.996	309.519	-69.9084	192.068	271.812	50.4974	190.753	250.105	53.5579	57.5209	220.345	28.1961	72.4684	307.095	206.808	61.4284	111.148	505.239	55.0624	92.4063	428.806	35.0868	145.653	409.55	33.1044	32.82	302.858	27.453	48.7271	368.191	119.037	94.67610000000001	469.98	37.7426	137.344	464.976	37.4761	41.9195	-0	0	0	142.055	1022.95	135.492	-200	0	0	-0	0	200	-0	200	0	
174	3.85	268.953	1461.33	140.502	423.221	1368.95	137.475	358.961	1411.61	311.231	327.961	1409.06	-32.5722	434.926	1204.09	146.933	168.319	1274.36	149.555	346.008	977.151	289.334	357.974	981.313	12.9456	149.243	1025.69	174.023	150.011	1022.76	94.9666	153.55	1073.56	138.103	273.861	1117.45	434.053	-0	0	0	-0	0	0	-0	0	0	363.861	851.289	429.597	364.088	861.979	385.206	317.673	853.356	440.318	299.42	1073.3	-125.48	-0	0	0	-0	0	0	-0	0	0	366.416	812.049	-120.9	323.62	822.825	-139.386	360.811	827.331	-74.7561	305.647	807.67	-16.9266	372.124	596.817	40.1896	406.168	691.122	49.3274	-0	0	0	-0	0	0	422.679	512.9640000000001	102.674	347.519	442.065	38.6407	292.144	177.557	48.7355	353.384	299.54	115.254	-0	0	0	-0	0	0	276.015	795.5119999999999	318.945	309.328	580.699	294.733	364.317	714.3390000000001	312.981	-0	0	0	-0	0	0	391.19	475.145	247.178	204.906	460.056	298.695	62.195	313.004	278.352	207.749	346.662	228.376	-0	0	0	-0	0	0	-65.7182	282.429	201.464	97.6649	42.0229	272.648	49.9263	83.8308	200.404	12.9549	103.667	309.913	-49.3187	188.256	271.749	71.39879999999999	189.318	250.773	77.5231	56.2047	220.735	51.436	70.72709999999999	307.263	206.783	61.4214	111.148	505.297	54.8194	92.4204	428.758	34.9065	145.674	409.52	33.0126	32.8356	302.884	27.4054	48.6837	368.241	118.944	94.7388	470.067	37.584	137.289	465.023	37.3326	41.9428	-0	0	0	149.627	1024.23	134.495	-200	0	0	-0	0	200	-0	200	0	
175	3.858333	276.713	1462.43	140.142	430.894	1370.05	137.534	365.935	1413.09	311.046	336.301	1410.34	-32.9538	442.73	1205.15	147.064	176.003	1275.41	148.55	353.833	978.024	287.981	365.335	982.5890000000001	12.1612	156.835	1026.68	173.123	157.353	1023.76	94.2697	161.066	1074.53	137.486	279.08	1118.8	433.718	-0	0	0	-0	0	0	-0	0	0	368.292	852.044	429.463	368.209	862.818	385.236	322.05	854.309	440.251	313.317	1074.22	-125.534	-0	0	0	-0	0	0	-0	0	0	386.914	814.615	-119.618	343.423	824.327	-138.238	380.61	830.112	-73.5762	311.4	808.2910000000001	-17.7699	375.422	596.905	39.7533	410.736	690.764	48.9097	-0	0	0	-0	0	0	424.807	512.351	102.306	348.993	442.121	38.4338	292.479	177.867	48.8225	354.446	299.461	115.278	-0	0	0	-0	0	0	285.547	797.002	318.751	323.482	582.5940000000001	295.469	375.759	717.544	313.217	-0	0	0	-0	0	0	407.324	478.711	247.86	220.824	460.407	299.112	80.85760000000001	310.663	278.781	226.784	347.386	229.323	-0	0	0	-0	0	0	-46.7153	276.945	201.854	123.033	41.2583	272.843	74.43729999999999	81.663	200.063	36.7727	99.9529	309.604	-27.7924	182.879	271.784	92.7679	187.548	250.906	102.985	54.499	221.057	76.19450000000001	68.1692	307.238	206.805	61.5074	111.179	505.319	54.5982	92.4037	428.76	34.6587	145.575	409.489	33.0835	32.7371	302.726	27.5048	48.6106	368.407	118.927	94.86920000000001	470.03	37.3697	137.201	465.033	37.178	41.9299	-0	0	0	157.094	1025.22	133.696	-200	0	0	-0	0	200	-0	200	0	
